<svg xmlns="http://www.w3.org/2000/svg" version="1.1" xmlns:xlink="http://www.w3.org/1999/xlink" xmlns:svgjs="http://svgjs.com/svgjs" width="1440" height="560" preserveAspectRatio="none" viewBox="0 0 1440 560"><g mask="url(&quot;#SvgjsMask1094&quot;)" fill="none"><rect width="1440" height="560" x="0" y="0" fill="rgba(245, 242, 235, 1)"></rect><path d="M 0,120 C 57.6,138.6 172.8,236.6 288,213 C 403.2,189.4 460.8,13 576,2 C 691.2,-9 748.8,150.4 864,158 C 979.2,165.6 1036.8,31.8 1152,40 C 1267.2,48.2 1382.4,167.2 1440,199L1440 560L0 560z" fill="rgba(107, 96, 71, 1)"></path><path d="M 0,534 C 48,494 144,350.4 240,334 C 336,317.6 384,445.6 480,452 C 576,458.4 624,372.2 720,366 C 816,359.8 864,421.6 960,421 C 1056,420.4 1104,358.2 1200,363 C 1296,367.8 1392,428.6 1440,445L1440 560L0 560z" fill="rgba(238, 214, 157, 1)"></path></g><defs><mask id="SvgjsMask1094"><rect width="1440" height="560" fill="#ffffff"></rect></mask></defs></svg>