<svg width="127" height="102" viewBox="0 0 127 102" fill="none" xmlns="http://www.w3.org/2000/svg">
<g opacity="0.6">
<path d="M0 44.6924C10.5101 44.6924 10.5101 29.4155 21.0225 29.4155C31.5371 29.4155 31.5371 44.6924 42.0494 44.6924C52.5663 44.6924 52.5663 29.4155 63.0832 29.4155C73.5978 29.4155 73.5978 44.6924 84.1101 44.6924C94.6315 44.6924 94.6315 29.4155 105.153 29.4155C115.674 29.4155 115.674 44.6924 126.195 44.6924" stroke="#5C675A" stroke-width="3" stroke-miterlimit="10"/>
<path d="M0 17.2769C10.5101 17.2769 10.5101 2 21.0225 2C31.5371 2 31.5371 17.2769 42.0494 17.2769C52.5663 17.2769 52.5663 2 63.0832 2C73.5978 2 73.5978 17.2769 84.1101 17.2769C94.6315 17.2769 94.6315 2 105.153 2C115.674 2 115.674 17.2769 126.195 17.2769" stroke="#5C675A" stroke-width="3" stroke-miterlimit="10"/>
<path d="M0 72.1082C10.5101 72.1082 10.5101 56.8313 21.0225 56.8313C31.5371 56.8313 31.5371 72.1082 42.0494 72.1082C52.5663 72.1082 52.5663 56.8313 63.0832 56.8313C73.5978 56.8313 73.5978 72.1082 84.1101 72.1082C94.6315 72.1082 94.6315 56.8313 105.153 56.8313C115.674 56.8313 115.674 72.1082 126.195 72.1082" stroke="#5C675A" stroke-width="3" stroke-miterlimit="10"/>
<path d="M0 99.5239C10.5101 99.5239 10.5101 84.2471 21.0225 84.2471C31.5371 84.2471 31.5371 99.5239 42.0494 99.5239C52.5663 99.5239 52.5663 84.2471 63.0832 84.2471C73.5978 84.2471 73.5978 99.5239 84.1101 99.5239C94.6315 99.5239 94.6315 84.2471 105.153 84.2471C115.674 84.2471 115.674 99.5239 126.195 99.5239" stroke="#5C675A" stroke-width="3" stroke-miterlimit="10"/>
</g>
</svg>
