<?xml version="1.0" standalone="no"?>
<!DOCTYPE svg PUBLIC "-//W3C//DTD SVG 20010904//EN"
 "http://www.w3.org/TR/2001/REC-SVG-20010904/DTD/svg10.dtd">
<svg version="1.0" xmlns="http://www.w3.org/2000/svg"
 width="92.000000pt" height="82.000000pt" viewBox="0 0 92.000000 82.000000"
 preserveAspectRatio="xMidYMid meet">

<g transform="translate(0.000000,82.000000) scale(0.100000,-0.100000)"
fill="#525154" stroke="none">
<path d="M210 665 c0 -78 3 -95 15 -95 12 0 15 16 15 85 l0 85 280 0 280 0 0
-333 c0 -184 -3 -336 -6 -340 -10 -10 -64 14 -79 36 -8 12 -15 34 -15 49 0 20
-6 29 -23 33 -13 4 -116 5 -230 3 l-207 -3 0 108 c0 87 -3 107 -15 107 -11 0
-15 -21 -17 -107 l-3 -108 -37 3 c-77 7 -97 -22 -63 -88 30 -59 43 -61 392
-58 l318 3 3 358 2 357 -305 0 -305 0 0 -95z m466 -537 c6 -18 14 -41 19 -51
7 -16 -8 -17 -239 -17 -262 0 -302 6 -325 48 -28 53 -33 52 262 52 l272 0 11
-32z"/>
<path d="M380 680 c0 -6 50 -10 130 -10 80 0 130 4 130 10 0 6 -50 10 -130 10
-80 0 -130 -4 -130 -10z"/>
<path d="M340 630 c0 -6 63 -10 170 -10 107 0 170 4 170 10 0 6 -63 10 -170
10 -107 0 -170 -4 -170 -10z"/>
<path d="M533 449 c-109 -100 -198 -187 -198 -193 0 -8 62 -11 205 -11 l205 0
3 193 c1 124 -1 192 -8 192 -5 0 -99 -82 -207 -181z m185 117 c-21 -16 -23
-32 -5 -40 10 -5 10 -7 0 -12 -7 -3 -13 -12 -13 -19 0 -7 6 -16 13 -18 9 -4 8
-8 -3 -17 -11 -9 -12 -13 -2 -17 6 -2 12 -11 12 -18 0 -7 -6 -16 -12 -18 -10
-4 -9 -8 2 -17 11 -9 12 -13 3 -17 -17 -6 -17 -30 -1 -35 8 -3 0 -17 -21 -39
-22 -21 -36 -29 -39 -21 -5 16 -29 16 -36 0 -5 -10 -7 -10 -12 0 -7 14 -34 16
-34 2 0 -5 -7 -10 -15 -10 -8 0 -15 5 -15 10 0 14 -27 12 -34 -2 -5 -10 -7
-10 -12 0 -7 16 -31 16 -38 0 -5 -10 -7 -10 -12 0 -7 15 -31 16 -36 1 -2 -7
-9 -10 -15 -8 -11 4 316 308 332 308 6 0 2 -6 -7 -13z m2 -286 c0 -5 -4 -10
-10 -10 -5 0 -10 5 -10 10 0 6 5 10 10 10 6 0 10 -4 10 -10z"/>
<path d="M587 396 c-37 -33 -67 -64 -67 -68 0 -5 34 -8 75 -8 l75 0 0 64 c0
36 -3 67 -7 69 -5 3 -38 -23 -76 -57z m59 -42 c-6 -15 -66 -20 -66 -5 0 5 15
21 33 35 31 25 32 25 35 5 2 -11 1 -27 -2 -35z"/>
<path d="M75 538 c-40 -22 -47 -64 -17 -91 16 -15 47 -17 224 -17 201 0 205 0
226 23 30 31 28 52 -7 76 -27 19 -43 21 -218 21 -121 -1 -195 -5 -208 -12z
m45 -53 c0 -22 -5 -35 -13 -35 -31 0 -51 53 -24 63 29 12 37 6 37 -28z m320
25 c0 -6 -52 -10 -136 -10 -104 0 -135 -3 -132 -12 3 -9 42 -14 136 -16 183
-4 172 -22 -13 -22 l-145 0 0 35 0 35 145 0 c90 0 145 -4 145 -10z m57 -16 c7
-19 -18 -38 -28 -22 -9 14 0 38 12 38 5 0 12 -7 16 -16z"/>
<path d="M262 378 c3 -7 21 -14 41 -16 28 -2 37 1 37 12 0 12 -11 16 -41 16
-28 0 -39 -4 -37 -12z"/>
<path d="M260 330 c0 -5 14 -10 30 -10 17 0 30 5 30 10 0 6 -13 10 -30 10 -16
0 -30 -4 -30 -10z"/>
</g>
</svg>
