<?xml version="1.0" standalone="no"?>
<!DOCTYPE svg PUBLIC "-//W3C//DTD SVG 20010904//EN"
 "http://www.w3.org/TR/2001/REC-SVG-20010904/DTD/svg10.dtd">
<svg version="1.0" xmlns="http://www.w3.org/2000/svg"
 width="92.000000pt" height="82.000000pt" viewBox="0 0 92.000000 82.000000"
 preserveAspectRatio="xMidYMid meet">

<g transform="translate(0.000000,82.000000) scale(0.100000,-0.100000)"
fill="#525154" stroke="none">
<path d="M490 786 c-8 -8 -28 -26 -43 -41 -39 -35 -35 -82 10 -110 30 -18 32
-24 33 -73 0 -59 -15 -66 -38 -19 -16 32 -32 35 -32 7 0 -19 10 -31 71 -86 20
-18 29 -18 29 0 0 8 11 17 25 20 32 8 47 38 43 84 -2 29 -10 41 -35 57 -28 17
-32 26 -33 63 0 49 23 59 42 17 15 -33 30 -32 26 2 -2 18 -14 35 -35 48 -18
11 -32 26 -33 33 0 16 -12 15 -30 -2z m-4 -133 c-3 -3 -12 0 -21 7 -20 17 -19
57 3 69 15 8 17 5 20 -31 2 -22 1 -43 -2 -45z m74 -74 c9 -16 8 -26 -5 -45
-23 -36 -35 -29 -35 21 0 50 20 62 40 24z"/>
<path d="M72 418 c-9 -9 -12 -62 -12 -189 0 -98 3 -184 6 -193 5 -13 22 -16
78 -16 75 0 96 9 96 43 0 15 5 18 23 14 12 -3 77 -18 144 -32 l122 -27 43 21
c52 25 262 180 301 222 15 16 27 40 27 53 0 32 -32 70 -61 71 -13 1 -37 8 -53
15 -24 12 -32 12 -55 -1 -23 -13 -29 -13 -53 0 -26 15 -29 14 -87 -26 l-60
-41 -92 27 c-86 26 -96 27 -137 14 -59 -17 -56 -18 -67 20 -10 32 -11 32 -80
35 -46 2 -74 -1 -83 -10z m136 -195 l2 -173 -60 0 -60 0 0 175 0 176 58 -3 57
-3 3 -172z m462 143 c0 -8 -7 -16 -15 -20 -15 -5 -21 -36 -7 -36 4 0 31 16 61
35 30 19 58 32 63 29 13 -8 2 -19 -47 -51 -42 -26 -59 -53 -34 -53 5 0 37 18
70 41 69 46 102 49 107 7 3 -23 -12 -38 -137 -132 -199 -149 -178 -142 -314
-111 -61 14 -125 29 -142 33 l-30 8 -3 102 -3 102 28 11 c61 23 89 21 208 -17
132 -42 159 -61 146 -96 -10 -28 -54 -34 -138 -19 -37 7 -60 8 -67 1 -16 -16
0 -23 91 -36 82 -13 90 -12 113 5 17 12 26 29 28 55 4 42 -10 64 -52 81 l-29
13 43 31 c48 34 60 38 60 17z"/>
</g>
</svg>
