<?xml version="1.0" standalone="no"?>
<!DOCTYPE svg PUBLIC "-//W3C//DTD SVG 20010904//EN"
 "http://www.w3.org/TR/2001/REC-SVG-20010904/DTD/svg10.dtd">
<svg version="1.0" xmlns="http://www.w3.org/2000/svg"
 width="92.000000pt" height="82.000000pt" viewBox="0 0 92.000000 82.000000"
 preserveAspectRatio="xMidYMid meet">

<g transform="translate(0.000000,82.000000) scale(0.100000,-0.100000)"
fill="#525154" stroke="none">
<path d="M235 813 c-75 -3 -93 -7 -112 -25 l-23 -21 0 -384 c0 -334 2 -383 15
-383 13 0 15 49 15 378 0 281 3 381 12 390 7 7 41 12 84 12 l73 0 3 -37 3 -38
155 0 155 0 3 38 3 37 73 0 c43 0 77 -5 84 -12 9 -9 12 -109 12 -390 0 -329 2
-378 15 -378 13 0 15 49 15 383 l0 384 -22 20 c-20 18 -40 21 -163 25 -77 3
-124 3 -105 1 46 -6 60 -19 60 -54 l0 -29 -130 0 -130 0 0 29 c0 35 15 48 60
54 42 5 -20 5 -155 0z"/>
<path d="M450 800 c0 -5 5 -10 10 -10 6 0 10 5 10 10 0 6 -4 10 -10 10 -5 0
-10 -4 -10 -10z"/>
<path d="M167 754 c-4 -4 -7 -173 -7 -376 l0 -368 300 0 300 0 -2 373 -3 372
-49 0 c-31 0 -51 -5 -53 -12 -3 -9 8 -13 36 -13 l41 0 0 -345 0 -345 -270 0
-270 0 0 345 0 345 41 0 c28 0 39 4 37 13 -5 13 -89 22 -101 11z"/>
<path d="M323 538 c-31 -30 -33 -31 -51 -15 -18 16 -42 23 -42 11 0 -15 23
-45 41 -55 18 -9 27 -6 60 27 36 35 50 64 31 64 -4 0 -22 -14 -39 -32z"/>
<path d="M420 525 c0 -13 19 -15 132 -13 94 2 133 7 136 16 3 9 -28 12 -132
12 -115 0 -136 -2 -136 -15z"/>
<path d="M323 378 c-31 -30 -33 -31 -51 -15 -20 18 -42 23 -42 9 0 -5 14 -21
30 -37 l30 -29 40 39 c37 36 51 65 32 65 -4 0 -22 -14 -39 -32z"/>
<path d="M423 368 c3 -10 38 -13 132 -13 94 0 129 3 133 13 3 9 -28 12 -133
12 -105 0 -136 -3 -132 -12z"/>
<path d="M323 218 c-31 -30 -33 -31 -51 -15 -20 18 -42 23 -42 9 0 -5 14 -21
30 -37 l30 -29 40 39 c37 36 51 65 32 65 -4 0 -22 -14 -39 -32z"/>
<path d="M420 210 c0 -6 52 -10 135 -10 83 0 135 4 135 10 0 6 -52 10 -135 10
-83 0 -135 -4 -135 -10z"/>
</g>
</svg>
