<?xml version="1.0" standalone="no"?>
<!DOCTYPE svg PUBLIC "-//W3C//DTD SVG 20010904//EN"
 "http://www.w3.org/TR/2001/REC-SVG-20010904/DTD/svg10.dtd">
<svg version="1.0" xmlns="http://www.w3.org/2000/svg"
 width="92.000000pt" height="82.000000pt" viewBox="0 0 92.000000 82.000000"
 preserveAspectRatio="xMidYMid meet">

<g transform="translate(0.000000,82.000000) scale(0.100000,-0.100000)"
fill="#525154" stroke="none">
<path d="M100 709 c-14 -6 -36 -20 -48 -32 -48 -45 -52 -64 -52 -259 0 -206 7
-234 69 -275 33 -22 41 -23 282 -23 215 0 249 2 249 15 0 13 23 15 150 15 127
0 150 -2 150 -15 0 -8 5 -15 10 -15 6 0 10 28 10 65 l0 65 -160 0 -160 0 0 34
c0 30 3 35 28 38 l27 3 3 92 3 92 -28 3 c-26 3 -29 7 -35 57 -7 57 -27 92 -72
125 -25 19 -43 21 -214 23 -111 1 -197 -2 -212 -8z m401 -34 c16 -9 39 -30 49
-48 18 -29 20 -51 20 -254 l0 -223 -225 0 c-323 0 -315 -7 -315 265 0 196 6
221 63 255 28 18 51 20 205 20 137 0 179 -3 203 -15z m137 -258 c3 -62 1 -67
-18 -67 -18 0 -20 6 -20 71 0 62 2 70 18 67 14 -3 18 -16 20 -71z m262 -217
c0 -19 -7 -20 -150 -20 -143 0 -150 1 -150 20 0 19 7 20 150 20 143 0 150 -1
150 -20z"/>
<path d="M218 560 c-97 -52 -109 -200 -23 -269 60 -46 128 -50 193 -11 47 29
72 76 72 136 0 125 -130 203 -242 144z m166 -41 c76 -66 63 -179 -24 -224
-141 -73 -265 119 -145 224 30 26 44 31 85 31 41 0 55 -5 84 -31z"/>
</g>
</svg>
