<?xml version="1.0" standalone="no"?>
<!DOCTYPE svg PUBLIC "-//W3C//DTD SVG 20010904//EN"
 "http://www.w3.org/TR/2001/REC-SVG-20010904/DTD/svg10.dtd">
<svg version="1.0" xmlns="http://www.w3.org/2000/svg"
 width="92.000000pt" height="82.000000pt" viewBox="0 0 92.000000 82.000000"
 preserveAspectRatio="xMidYMid meet">

<g transform="translate(0.000000,82.000000) scale(0.100000,-0.100000)"
fill="#525154" stroke="none">
<path d="M330 788 c-58 -57 -78 -130 -37 -142 71 -22 332 -15 355 9 12 12 -22
89 -55 126 -30 33 -42 39 -75 39 -37 0 -39 -2 -36 -27 4 -34 22 -37 26 -6 3
22 5 22 32 8 33 -17 80 -80 80 -107 0 -12 -12 -19 -37 -25 -48 -9 -206 -9
-255 1 l-38 7 15 37 c14 35 78 102 97 102 4 0 8 -11 8 -25 0 -14 5 -25 10 -25
6 0 10 14 10 30 0 27 -3 30 -33 30 -24 0 -43 -9 -67 -32z"/>
<path d="M380 692 c0 -10 19 -12 77 -10 104 4 106 23 3 23 -59 0 -80 -3 -80
-13z"/>
<path d="M267 624 c-13 -14 -7 -61 12 -85 10 -13 22 -35 26 -49 13 -45 45 -89
81 -111 43 -26 117 -23 157 7 28 21 67 83 67 107 0 9 6 22 13 29 43 43 46 112
5 106 -12 -2 -24 -9 -26 -17 -3 -10 0 -12 12 -8 24 9 21 -35 -4 -58 -11 -10
-20 -28 -20 -39 0 -52 -76 -126 -128 -126 -52 0 -117 56 -133 114 -6 22 -19
51 -30 64 -24 32 -24 42 2 42 12 0 19 5 17 13 -5 14 -40 21 -51 11z"/>
<path d="M336 593 c-7 -8 4 -54 17 -70 5 -7 22 -13 38 -13 22 0 34 8 48 31
l19 31 16 -31 c13 -24 23 -31 46 -31 37 0 62 25 58 59 l-3 26 -116 2 c-64 1
-119 -1 -123 -4z m84 -38 c0 -21 -27 -30 -45 -15 -23 19 -18 30 15 30 20 0 30
-5 30 -15z m140 7 c0 -12 -23 -32 -37 -32 -7 0 -17 9 -23 20 -10 18 -8 20 25
20 19 0 35 -4 35 -8z"/>
<path d="M303 407 c-4 -8 -21 -21 -38 -30 -16 -8 -43 -29 -59 -45 -31 -33 -25
-33 -134 2 -23 8 -23 7 -20 -60 2 -47 7 -69 17 -72 11 -4 13 5 7 48 -7 51 -6
52 16 48 151 -33 234 -47 292 -50 l68 -3 -1 -123 c-2 -104 0 -122 13 -122 14
0 16 21 16 144 l0 143 84 7 c69 6 200 31 266 51 13 4 14 -6 12 -61 -5 -82 8
-118 19 -54 9 52 11 150 4 150 -3 0 -38 -9 -79 -20 l-74 -21 -51 32 c-28 18
-51 36 -51 40 0 5 -4 9 -10 9 -5 0 -10 -14 -10 -31 0 -28 -2 -31 -25 -25 -33
8 -33 -12 1 -24 37 -14 44 -13 44 10 0 20 1 20 33 3 l32 -17 -40 -8 c-22 -4
-71 -11 -110 -15 -52 -6 -70 -12 -70 -23 0 -10 -12 -16 -34 -18 -34 -3 -202
16 -210 24 -7 6 25 37 59 57 31 19 31 19 37 -2 6 -24 11 -25 47 -11 34 13 35
34 1 26 -22 -6 -25 -3 -25 18 0 29 -15 42 -27 23z"/>
<path d="M33 178 c-13 -6 -25 -24 -28 -42 -9 -47 -2 -129 12 -133 9 -3 13 18
15 74 l3 78 34 3 c39 4 64 -20 30 -28 -26 -6 -26 -24 1 -28 26 -4 26 -22 0
-22 -11 0 -20 -7 -20 -15 0 -8 9 -15 20 -15 27 0 25 -18 -2 -22 -34 -5 -28
-23 10 -26 l32 -3 0 79 c0 54 -4 83 -13 91 -21 17 -69 22 -94 9z"/>
<path d="M806 164 c-12 -11 -16 -36 -16 -91 0 -73 1 -75 23 -69 12 3 25 6 30
6 17 0 5 20 -13 20 -11 0 -20 5 -20 10 0 6 9 10 20 10 11 0 20 5 20 11 0 6 -9
13 -20 16 -11 3 -20 9 -20 14 0 5 9 9 20 9 11 0 20 5 20 10 0 6 -9 10 -21 10
-36 0 -15 25 24 28 l37 3 0 -76 c0 -57 3 -76 13 -73 7 3 13 29 15 71 2 56 0
69 -18 87 -24 24 -72 26 -94 4z"/>
</g>
</svg>
