<!-- Generated by IcoMoon.io -->
<svg version="1.1" xmlns="http://www.w3.org/2000/svg" width="768" height="768" viewBox="0 0 768 768">
<title></title>
<g id="icomoon-ignore">
</g>
<path fill="#525154" d="M381.133 385c-36.452 0-72.951 0-109.402 0-22.8 0-45.736-0.638-68.536 0-19.296 0.546-35.952 13.562-38.318 33.358-2.048 17.203-2.731 40.503 9.647 53.928 10.012 10.876 25.166 12.743 40.184 12.743 7.509 45.964 15.018 91.882 22.527 137.845 3.959 24.302 7.918 48.604 11.923 72.951 4.688 28.808 19.706 53.655 47.647 65.305 25.303 10.512 57.523 5.962 84.281 5.962 20.479 0 40.958 0.455 61.436 0 38.137-0.82 69.538-27.578 76.272-65.123 3.368-18.796 6.144-37.681 9.239-56.521 8.737-53.609 17.521-107.218 26.258-160.828 2.821-0.045 5.643-0.045 8.464-0.091 1.32-0.045 2.64 0 4.005 0 25.075-1.365 37.59-20.434 37.59-43.87 0-21.434-0.638-44.416-24.574-53.155-7.736-2.821-15.563-2.412-23.619-2.412-12.197 0-24.347 0-36.544 0-41.822 0-83.645 0-125.513 0 0-7.873 0-15.7 0-23.574 10.876-9.239 21.754-18.431 32.675-27.67 15.883 25.303 45.964 38.318 75.317 33.039 34.359-6.189 58.889-37.226 59.344-71.631-0.409-30.308-18.976-57.431-47.375-68.263-28.625-10.922-62.392-1.82-81.733 21.844-16.748 20.525-21.116 48.877-11.605 73.223-8.874 7.509-17.748 15.018-26.623 22.527 0-38 0-75.954 0-113.953 4.915-0.227 9.785-0.728 14.7-1.593 54.565-9.829 93.61-58.797 94.385-113.544-0.637-47.784-29.854-90.926-74.725-108.083-45.646-17.43-99.254-3.049-130.109 34.814-30.354 37.272-34.768 90.972-10.012 132.385 19.841 33.221 55.156 53.7 92.792 56.021 0 42.186 0 84.373 0 126.56-0.182 0.773-0.182 1.502 0 2.185 0 1.093 0 2.185 0 3.276 0 7.418 0 14.881 0 22.345zM520.798 609.45c-4.141 25.348-8.282 50.651-12.424 75.954-4.187 25.667-11.969 49.331-37.408 61.982-23.983 11.969-57.751 6.689-83.736 6.689-20.069 0-40.184 0.41-60.253 0-35.179-0.683-59.344-25.485-64.94-59.116-3.55-21.161-6.917-42.323-10.376-63.484-7.964-48.922-15.974-97.843-23.983-146.81 3.596-0.137 7.1-0.227 10.422-0.227 38.455 0 76.909 0 115.364 0 62.529 0 125.149 0.955 187.723 0.227-6.826 41.595-13.607 83.19-20.388 124.784zM556.568 397.971c12.060 0 24.165-0.045 31.355 12.242 5.096 8.647 3.368 20.752 3.368 30.4 0 15.928-6.644 29.945-24.62 30.901-5.962 0-11.923 0-17.885 0v0c-54.793 0-109.585 0-164.377 0s-109.585 0-164.377 0v0c-2.913 0-5.825 0-8.692 0-8.374 0-16.201 0.546-23.528-4.778-9.921-7.144-10.33-17.476-10.33-28.397 0-9.147-1.456-19.933 3.368-28.125 10.376-17.703 41.55-12.242 58.843-12.242 74.634 0 149.268 0 223.902 0 31.036 0 62.029 0 92.974 0zM437.063 264.449c12.697-21.252 38.090-32.857 62.484-28.215 28.352 5.416 48.557 30.308 48.967 58.979-0.364 24.939-15.791 47.875-39.502 56.385-23.801 8.556-50.879 1.047-66.943-18.476-2.002-2.458-3.778-5.051-5.37-7.736 5.643-4.778 11.287-9.557 16.929-14.335 5.324 2.002 10.694 3.959 16.018 5.962 0.911 0.318 1.82 0.683 2.685 1 1.502 0.546 3.686 0.137 5.006-0.637 1.365-0.773 2.64-2.321 2.958-3.869 0.82-3.686-1.093-6.689-4.505-7.964-3.641-1.365-7.236-2.685-10.876-4.051 1-0.82 1.958-1.684 2.958-2.503 3.595-3.049 7.191-6.098 10.785-9.147 6.371-5.416-2.822-14.518-9.147-9.147-12.652 10.74-25.348 21.48-38.045 32.221-4.869-16.018-3.185-33.813 5.598-48.466zM308.411 180.577c-27.305-32.994-30.809-81.050-8.874-117.776 21.844-36.544 65.396-56.249 107.263-48.194 48.33 9.284 82.735 52.017 83.417 100.801-0.592 42.868-27.168 82.052-67.898 96.569-9.193 3.276-18.704 5.096-28.17 5.643 0-10.149 0-20.297 0-30.49 0-9.647 0-19.25 0-28.898 0-8.329-12.97-8.374-12.97 0 0 7.372 0 14.7 0 22.072-1.684-1.82-3.322-3.595-5.006-5.416-0.773-0.82-1.502-1.638-2.276-2.458-2.32-2.503-6.871-2.503-9.147 0-2.458 2.685-2.458 6.508 0 9.147 5.37 5.779 10.694 11.605 16.065 17.384 0.137 0.137 0.227 0.273 0.365 0.409 0 6.053 0 12.105 0 18.158-27.806-1.866-54.473-14.79-72.769-36.952z"></path>
</svg>
