<!-- Generated by IcoMoon.io -->
<svg version="1.1" xmlns="http://www.w3.org/2000/svg" width="768" height="768" viewBox="0 0 768 768">
<title></title>
<g id="icomoon-ignore">
</g>
<path fill="#525154" d="M764.301 537.766c-7.519-21.084-22.931-37.482-43.398-46.482s-43.030-9.124-63.62-0.37l-138.089 58.318c0.123-1.603 0.247-3.453 0.247-5.179 0-26.878-21.823-48.7-48.702-48.7h-99.621c-4.070 0-8.014-0.863-11.712-2.59l-84.457-38.099c-13.192-6.041-27.865-9.247-42.413-9.247h-71.511v-6.905c0-13.562-10.972-24.659-24.659-24.659h-136.364v311.194h136.364c13.687 0 24.659-11.096 24.659-24.659v-19.357h39.577l147.337 47.345c12.206 3.822 24.782 5.795 37.481 5.795 19.975 0 39.947-4.809 57.702-14.303l324.88-172.118-3.699-9.987zM86.676 679.307c-9.494 0-17.26-7.768-17.26-17.261 0-9.616 7.766-17.384 17.26-17.384s17.261 7.768 17.261 17.384c0 9.494-7.768 17.261-17.261 17.261zM431.653 698.048c-23.301 12.452-51.043 14.794-76.195 6.781l-149.185-47.962-45.25-0.493v-186.298h71.511c11.096 0 22.193 2.466 32.18 7.028l84.456 38.221c6.905 3.082 14.303 4.685 21.947 4.685h99.621c13.315 0 24.043 10.85 24.043 24.042 0 13.316-10.728 24.043-24.043 24.043h-128.966v24.659h128.966c9.001 0 17.385-2.343 24.537-6.658l171.625-72.497c14.301-6.041 29.959-5.918 44.14 0.247 10.849 4.808 19.725 12.699 25.643 22.686l-305.030 161.515z"></path>
<path fill="#525154" d="M111.687 364.14l76.785-42.542 75.193 45.299-16.732-86.173 55.171-47.846-20.369 87.759c-1.108 4.744 0.686 9.692 4.575 12.631 3.901 2.938 9.139 3.305 13.401 0.939l85.354-47.277 83.561 50.341c4.030 2.451 9.322 2.411 13.425-0.458 3.986-2.787 5.96-7.669 5.033-12.45l-18.59-95.776 1.755-1.522 55.275 51.566-19.847 85.51 76.785-42.542 75.191 45.299-16.73-86.173 66.316-57.514-87.125-10.716-34.207-80.844-37.115 79.55-66.909 5.776 60.323-52.311c3.684-3.19 5.129-8.248 3.709-12.907s-5.442-8.049-10.283-8.645l-96.841-11.908-38.012-89.852c-1.902-4.485-6.261-7.435-11.125-7.525-0.084 0-0.157 0-0.229 0-4.78 0-9.151 2.769-11.174 7.116l-41.251 88.413-97.202 8.393c-10.573 0.905-15.175 13.971-7.357 21.299l66.963 62.46-73.28-9.013-34.205-80.844-37.114 79.549-87.459 7.549 64.188 59.881-19.846 85.51zM346.223 153.31c4.395-0.38 8.248-3.070 10.114-7.068l32.534-69.744 29.993 70.876c1.722 4.064 5.479 6.893 9.849 7.435l76.385 9.392-58.143 50.425c-3.335 2.89-4.864 7.333-4.021 11.661l14.665 75.553-65.921-39.71c-3.798-2.297-8.53-2.344-12.329-0.223l-67.33 37.295 17.398-74.97c0.999-4.292-0.373-8.795-3.588-11.806l-56.289-52.502 76.686-6.616z"></path>
</svg>
